<?xml version="1.0" encoding="utf-8"?>
<!-- Generator: Adobe Illustrator 24.1.1, SVG Export Plug-In . SVG Version: 6.00 Build 0)  -->
<svg version="1.1" id="Layer_1" xmlns="http://www.w3.org/2000/svg" xmlns:xlink="http://www.w3.org/1999/xlink" x="0px" y="0px"
	width="65" height="65" viewBox="0 0 550 650" style="enable-background:new 0 0 512 512;" xml:space="preserve">
<g>
	<path d="M472.8,385.6c26.1,12.3,39.2,32.7,39.2,61c0,18.2-6.4,33.6-19.1,46.3c-12.7,12.7-28.1,19.1-46.3,19.1s-33.6-6.4-46.3-19.1
		c-12.7-12.7-19.1-28.1-19.1-46.3c0-28.3,13.1-48.7,39.2-61v-62.1c0-28.3-13.8-42.5-41.4-42.5h-54.5c-16,0-30.1-2.2-42.5-6.5v111.1
		c26.1,12.3,39.2,32.7,39.2,61c0,18.2-6.4,33.6-19.1,46.3C289.6,505.6,274.2,512,256,512s-33.6-6.4-46.3-19.1
		c-12.7-12.7-19.1-28.1-19.1-46.3c0-28.3,13.1-48.7,39.2-61V274.5c-10.9,4.4-24.7,6.5-41.4,6.5H134c-12.3,0-22,3.4-28.9,10.3
		c-6.9,6.9-10.9,12.9-12,18s-1.6,9.8-1.6,14.2v62.1c26.1,12.3,39.2,32.7,39.2,61c0,18.2-6.4,33.6-19.1,46.3
		C99,505.6,83.5,512,65.4,512s-33.6-6.4-46.3-19.1C6.4,480.2,0,464.8,0,446.6c0-28.3,13.1-48.7,39.2-61v-62.1
		c0-23.2,7.8-44.7,23.4-64.3c15.6-19.6,39.4-29.4,71.4-29.4h54.5c27.6,0,41.4-9.4,41.4-28.3v-76.3c-26.1-12.3-39.2-32.3-39.2-59.9
		c0-18.2,6.4-33.6,19.1-46.3C222.4,6.4,237.8,0,256,0s33.6,6.4,46.3,19.1s19.1,28.1,19.1,46.3c0,27.6-13.1,47.6-39.2,59.9v76.3
		c0,18.9,14.2,28.3,42.5,28.3h54.5c31.2,0,54.6,9.8,70.3,29.4c15.6,19.6,23.4,41,23.4,64.3V385.6 M103.5,446.6
		c0-10.9-3.8-20-11.4-27.2s-16.5-10.9-26.7-10.9s-18.9,3.6-26.1,10.9s-10.9,16.3-10.9,27.2c0,10.2,3.6,18.9,10.9,26.1
		s16,10.9,26.1,10.9s19.1-3.6,26.7-10.9S103.5,456.8,103.5,446.6 M219,65.4c0,10.2,3.6,18.9,10.9,26.1c7.3,7.3,16,10.9,26.1,10.9
		c10.2,0,19.1-3.6,26.7-10.9c7.6-7.3,11.4-16,11.4-26.1c0-10.9-3.8-20-11.4-27.2S266.2,27.2,256,27.2c-10.2,0-18.9,3.6-26.1,10.9
		S219,54.5,219,65.4 M294.1,446.6c0-10.9-3.8-20-11.4-27.2s-16.5-10.9-26.7-10.9c-10.2,0-18.9,3.6-26.1,10.9S219,435.7,219,446.6
		c0,10.2,3.6,18.9,10.9,26.1s16,10.9,26.1,10.9c10.2,0,19.1-3.6,26.7-10.9S294.1,456.8,294.1,446.6 M446.6,483.7
		c10.2,0,19.1-3.6,26.7-10.9c7.6-7.3,11.4-16,11.4-26.1c0-10.9-3.8-20-11.4-27.2c-7.6-7.3-16.5-10.9-26.7-10.9
		c-10.2,0-18.9,3.6-26.1,10.9s-10.9,16.3-10.9,27.2c0,10.2,3.6,18.9,10.9,26.1S436.5,483.7,446.6,483.7"/>
</g>
</svg>
